<svg width="886" height="200" viewBox="0 0 886 200" fill="none" xmlns="http://www.w3.org/2000/svg">
<rect width="200" height="200" rx="50" fill="url(#paint0_linear_105_120)"/>
<path d="M93.5873 64.642L87.0537 73.284L93.4452 81.7099L99.6947 90.0278L87.0537 90.3519L74.4126 90.6759L70.1516 95.7531C67.879 98.5617 61.6295 106.448 56.5163 113.361L47 126L53.8176 134.75L60.4933 143.5H100.405H140.317L146.566 135.182C149.975 130.645 152.674 126.432 152.674 125.784C152.674 125.136 143.867 113.037 133.215 98.8858L113.756 73.284L119.722 65.3982C122.988 61.1852 125.971 57.2963 126.255 56.7562C126.539 56.3241 120.858 56 113.472 56H99.9788L93.5873 64.642ZM114.466 109.256C121.142 118.114 126.681 125.46 126.681 125.784C126.681 126 114.892 126.216 100.405 126.216C85.9174 126.216 74.1286 126 74.1286 125.784C74.1286 125.568 77.2533 121.247 81.0882 116.278C84.7811 111.417 90.6045 103.747 94.0134 99.4259C97.2802 94.9969 100.547 91.8642 101.115 92.4043C101.825 92.8364 107.791 100.506 114.466 109.256Z" fill="white"/>
<path d="M316.48 141.28C296 141.28 284.352 133.216 284.352 118.496V118.112H298.176V119.136C298.176 127.456 303.168 130.144 316.48 130.144C328.896 130.144 332.608 127.584 332.608 121.952C332.608 116.704 329.536 115.04 320.448 113.76L303.04 111.456C291.008 109.92 283.712 104.8 283.712 94.176C283.712 83.04 293.824 75.104 313.408 75.104C332.864 75.104 344.64 82.912 344.64 98.016V98.4H330.944V97.632C330.944 90.08 327.104 86.112 313.024 86.112C301.376 86.112 297.28 88.672 297.28 94.688C297.28 99.68 299.84 101.472 309.44 102.752L324.16 104.8C339.264 106.72 346.176 111.84 346.176 122.336C346.176 134.24 334.4 141.28 316.48 141.28ZM391.222 141.28C370.102 141.28 355.894 127.84 355.894 108.256C355.894 88.416 370.102 75.104 391.222 75.104C412.47 75.104 426.678 88.416 426.678 108.256C426.678 127.84 412.47 141.28 391.222 141.28ZM391.222 128.992C406.71 128.992 413.11 121.696 413.11 108.256C413.11 94.688 406.71 87.264 391.222 87.264C375.862 87.264 369.462 94.688 369.462 108.256C369.462 121.696 375.862 128.992 391.222 128.992ZM453.094 140H439.27V54.24H453.094V140ZM500.455 141.28C479.591 141.28 465.895 129.504 465.895 108.256C465.895 88.416 479.463 75.104 500.199 75.104C519.911 75.104 533.351 85.984 533.351 105.312C533.351 107.616 533.223 109.408 532.839 111.328H478.823C479.335 123.616 485.351 130.144 500.071 130.144C513.383 130.144 518.887 125.792 518.887 118.24V117.216H532.711V118.368C532.711 131.936 519.399 141.28 500.455 141.28ZM499.943 85.984C485.863 85.984 479.719 92.256 478.951 103.648H520.295V103.392C520.295 91.616 513.511 85.984 499.943 85.984ZM556.761 140H540.249L567.641 108.512V107.744L540.249 76.384H557.017L578.137 100.448H578.905L599.769 76.384H616.409L589.017 107.488V108.256L616.409 140H599.641L578.521 115.68H577.625L556.761 140ZM640.548 140H623.14V120.16H640.548V140ZM681.417 141.28C661.321 141.28 650.185 127.84 650.185 108.256C650.185 88.416 661.193 75.104 680.521 75.104C695.625 75.104 704.201 82.912 706.761 93.664H707.529V54.24H721.353V140H708.681V121.696H707.785C705.097 134.368 695.753 141.28 681.417 141.28ZM664.137 108.256C664.137 123.488 671.945 128.608 685.641 128.608C699.209 128.608 707.529 122.208 707.529 108.896V107.872C707.529 94.304 699.593 87.648 685.385 87.648C672.073 87.648 664.137 92.896 664.137 108.256ZM768.695 141.28C747.831 141.28 734.135 129.504 734.135 108.256C734.135 88.416 747.703 75.104 768.439 75.104C788.151 75.104 801.591 85.984 801.591 105.312C801.591 107.616 801.463 109.408 801.079 111.328H747.063C747.575 123.616 753.591 130.144 768.311 130.144C781.623 130.144 787.127 125.792 787.127 118.24V117.216H800.951V118.368C800.951 131.936 787.639 141.28 768.695 141.28ZM768.183 85.984C754.103 85.984 747.959 92.256 747.191 103.648H788.535V103.392C788.535 91.616 781.751 85.984 768.183 85.984ZM855.337 140H838.441L808.745 76.384H823.977L846.633 126.56H847.657L870.313 76.384H885.289L855.337 140Z" fill="white"/>
<defs>
<linearGradient id="paint0_linear_105_120" x1="-1.12612e-06" y1="11.5" x2="176" y2="187.25" gradientUnits="userSpaceOnUse">
<stop stop-color="#684DDC"/>
<stop offset="0.973328" stop-color="#221366"/>
</linearGradient>
</defs>
</svg>
